<?xml version="1.0" encoding="utf-8"?>
<!-- Generator: Adobe Illustrator 24.0.1, SVG Export Plug-In . SVG Version: 6.00 Build 0)  -->
<svg version="1.1" id="Layer_1" xmlns="http://www.w3.org/2000/svg" xmlns:xlink="http://www.w3.org/1999/xlink" x="0px" y="0px"
	 viewBox="0 0 512 512" style="enable-background:new 0 0 512 512;" xml:space="preserve">
<style type="text/css">
	.st0{fill:#97C199;}
</style>
<path class="st0" d="M475.2,204.6h-19.7c-16.1,0-29.6-13.9-29.6-30.4c0-8.3,3.5-15.8,9.7-21.4l12.7-12.5c12.6-12.5,12.6-32.9,0-45.3
	l-29-28.7c-5.7-5.7-14.2-9.1-22.7-9.1s-16.9,3.4-22.7,9.1l-12.2,12.2c-5.8,6.5-13.6,10-22.1,10C322.9,88.5,309,75,309,59V39.1
	c0-17.5-14.2-32.6-31.8-32.6h-39.5C220,6.5,206,21.4,206,39.1v19.7c0,16-13.9,29.5-30.5,29.5c-8.3,0-16-3.5-21.6-9.6l-12.6-12.5
	c-5.7-5.8-14.2-9.1-22.7-9.1s-16.9,3.4-22.7,9.1L66.6,94.8c-12.5,12.5-12.5,32.9,0,45.2l12.2,12.2c6.5,5.8,10.1,13.6,10.1,22
	c0,16.6-13.5,30.4-29.6,30.4H39.6c-17.8,0-32.7,13.9-32.7,31.6v19.7v19.7c0,17.5,14.9,31.6,32.7,31.6h19.7
	c16.1,0,29.6,13.9,29.6,30.4c0,8.3-3.6,16.1-10.1,22l-12.2,12.1c-12.5,12.5-12.5,32.9,0,45.2l29,28.8c5.7,5.8,14.2,9.1,22.7,9.1
	s16.9-3.4,22.7-9.1l12.6-12.5c5.5-6.1,13.3-9.6,21.6-9.6c16.6,0,30.5,13.5,30.5,29.5v19.7c0,17.5,14,32.6,31.8,32.6H277
	c17.7,0,31.7-14.9,31.7-32.6v-19.7c0-16,13.9-29.5,30.5-29.5c8.3,0,16.1,3.6,22.1,10l12.2,12.2c5.8,5.7,14.2,9.1,22.7,9.1
	s16.9-3.4,22.7-9.1l29-28.8c12.5-12.5,12.5-32.9,0-45.3l-12.7-12.5c-6.2-5.6-9.7-13.3-9.7-21.4c0-16.6,13.5-30.4,29.6-30.4h19.7
	c17.7,0,30.3-13.9,30.3-31.6v-19.9v-19.7C505.4,218.5,492.8,204.6,475.2,204.6z M361.2,255.9L361.2,255.9
	c0,57.3-46.4,103.9-103.9,103.9s-103.9-46.6-103.9-103.9l0,0l0,0c0-57.3,46.4-103.9,103.9-103.9S361.2,198.6,361.2,255.9
	L361.2,255.9z"/>
</svg>
