<svg id="svg" version="1.1" xmlns="http://www.w3.org/2000/svg" xmlns:xlink="http://www.w3.org/1999/xlink" width="400" height="545.4545454545455" viewBox="0, 0, 400,545.4545454545455"><g id="svgg"><path id="path0" d="M187.000 7.234 C 153.598 9.991,119.286 20.641,93.849 36.147 C 91.455 37.606,89.424 38.800,89.335 38.800 C 89.010 38.800,80.490 44.729,76.400 47.802 C 64.887 56.452,51.626 69.071,43.827 78.800 C 20.105 108.390,9.365 134.928,5.380 173.800 C 4.487 182.517,4.487 206.734,5.380 212.433 C 5.464 212.965,5.651 214.660,5.797 216.200 C 6.459 223.180,7.105 228.701,7.600 231.600 C 7.807 232.810,8.076 234.430,8.199 235.200 C 8.427 236.637,9.041 239.976,9.339 241.400 C 9.431 241.840,9.637 243.010,9.798 244.000 C 10.054 245.574,11.413 251.873,12.991 258.800 C 13.266 260.010,13.983 262.800,14.583 265.000 C 15.184 267.200,15.932 269.990,16.247 271.200 C 20.799 288.724,31.860 317.429,37.978 327.600 C 39.088 329.446,42.139 334.678,45.207 340.000 C 46.159 341.650,47.780 344.440,48.811 346.200 C 49.842 347.960,51.462 350.750,52.410 352.400 C 53.358 354.050,54.671 356.300,55.327 357.400 C 55.984 358.500,56.826 359.940,57.199 360.600 C 58.039 362.087,61.912 368.747,64.365 372.924 C 65.374 374.643,66.935 377.343,67.833 378.924 C 68.731 380.506,70.424 383.420,71.596 385.400 C 73.594 388.778,75.130 391.445,77.816 396.200 C 78.438 397.300,80.089 399.640,81.486 401.400 C 94.188 417.403,104.717 437.761,105.873 448.551 L 106.125 450.901 111.085 450.619 C 113.813 450.463,116.530 450.278,117.122 450.208 C 117.715 450.137,120.270 449.963,122.800 449.820 C 130.459 449.388,129.763 450.201,128.577 443.070 C 126.209 428.837,115.386 407.128,102.298 390.358 C 100.684 388.291,98.720 385.520,97.933 384.200 C 97.145 382.880,95.908 380.810,95.184 379.600 C 94.460 378.390,92.575 375.150,90.994 372.400 C 89.414 369.650,87.169 365.780,86.006 363.800 C 84.842 361.820,83.224 359.030,82.411 357.600 C 81.598 356.170,79.983 353.380,78.822 351.400 C 77.661 349.420,76.258 346.990,75.704 346.000 C 75.150 345.010,74.476 343.930,74.207 343.600 C 73.938 343.270,73.094 341.830,72.332 340.400 C 71.571 338.970,69.989 336.180,68.818 334.200 C 67.647 332.220,66.021 329.430,65.205 328.000 C 64.389 326.570,63.092 324.320,62.324 323.000 C 57.369 314.483,56.404 312.785,55.457 310.914 C 52.514 305.101,45.241 286.272,42.551 277.500 C 42.028 275.795,41.137 272.915,40.570 271.100 C 37.294 260.601,32.636 241.015,31.413 232.600 C 31.286 231.720,30.926 229.380,30.615 227.400 C 27.968 210.558,27.185 184.576,28.962 172.600 C 29.060 171.940,29.257 170.320,29.399 169.000 C 32.372 141.390,42.858 117.292,62.575 92.756 C 65.305 89.359,78.741 75.786,81.971 73.163 C 83.165 72.193,84.785 70.848,85.571 70.174 C 88.218 67.903,99.694 59.600,100.186 59.600 C 100.272 59.600,101.391 58.911,102.672 58.069 C 103.952 57.227,105.270 56.421,105.600 56.278 C 105.930 56.135,107.100 55.472,108.200 54.805 C 126.311 43.821,155.454 34.396,180.600 31.393 C 186.854 30.646,186.421 30.688,187.100 30.753 C 187.499 30.790,187.600 72.772,187.600 239.200 L 187.600 447.600 199.200 447.600 L 210.800 447.600 210.800 366.600 L 210.800 285.600 217.000 285.600 L 223.200 285.600 223.200 299.306 C 223.200 314.752,223.203 314.767,226.242 316.887 L 227.800 317.973 243.300 317.987 L 258.800 318.000 258.800 320.810 C 258.800 323.509,258.757 323.636,257.700 324.030 C 241.004 330.250,233.529 351.115,242.397 366.745 C 257.628 393.590,298.052 383.043,298.148 352.200 C 298.188 339.436,291.958 329.685,280.500 324.579 L 278.000 323.465 278.000 313.116 C 278.000 301.390,277.997 301.378,274.565 299.361 L 272.930 298.400 257.665 298.400 L 242.400 298.400 242.400 292.018 L 242.400 285.635 262.147 285.518 L 281.894 285.400 283.847 283.615 C 286.730 280.979,286.735 280.950,286.770 267.500 L 286.800 255.600 311.962 255.600 L 337.125 255.600 338.368 258.257 C 344.409 271.165,359.923 278.744,372.800 275.076 C 376.970 273.888,377.554 273.667,379.834 272.416 C 398.073 262.406,401.178 237.916,385.990 223.855 C 373.216 212.028,354.046 213.406,342.536 226.977 C 340.580 229.283,337.606 234.420,337.602 235.500 C 337.600 235.895,332.252 236.000,312.200 236.000 L 286.800 236.000 286.800 219.600 L 286.800 203.200 303.900 203.167 C 321.948 203.132,322.664 203.098,324.463 202.168 C 325.088 201.844,325.600 201.671,325.600 201.783 C 325.600 201.895,326.324 201.610,327.210 201.148 C 328.725 200.358,331.206 197.073,330.683 196.549 C 330.565 196.431,330.723 195.725,331.034 194.980 C 331.491 193.887,331.600 190.441,331.600 177.086 L 331.600 160.547 333.827 159.624 C 349.972 152.932,356.966 132.099,348.095 117.120 C 339.464 102.546,321.548 97.683,307.077 105.987 C 285.760 118.220,287.640 149.494,310.300 159.606 L 312.400 160.543 312.400 172.071 L 312.400 183.600 299.600 183.600 L 286.800 183.600 286.800 172.860 C 286.800 160.858,286.695 160.236,284.304 158.047 C 281.705 155.667,281.537 155.638,270.507 155.618 L 260.414 155.600 260.307 135.200 C 260.235 121.424,260.334 114.800,260.611 114.800 C 265.567 114.801,276.498 104.022,278.947 96.719 C 285.822 76.216,271.006 55.961,249.600 56.598 C 224.675 57.341,211.657 86.805,227.862 105.798 C 231.362 109.900,238.381 114.800,240.757 114.800 C 241.075 114.800,241.200 120.552,241.200 135.200 L 241.200 155.600 226.000 155.600 L 210.800 155.600 210.800 85.887 C 210.800 28.842,210.702 15.798,210.263 14.104 C 209.349 10.579,207.804 8.896,204.315 7.626 C 202.818 7.081,191.859 6.833,187.000 7.234 M224.698 8.559 C 224.002 9.255,223.748 10.341,222.162 19.400 C 220.742 27.510,220.585 29.325,221.257 29.875 C 221.556 30.118,225.748 31.038,230.572 31.917 C 240.826 33.787,240.957 33.772,241.562 30.643 C 242.361 26.512,244.381 15.758,244.616 14.381 C 244.961 12.362,243.918 11.199,241.378 10.773 C 240.290 10.591,236.790 9.970,233.600 9.392 C 230.410 8.815,227.246 8.247,226.570 8.130 C 225.745 7.988,225.128 8.129,224.698 8.559 M261.882 16.900 C 260.531 18.278,254.628 33.259,254.942 34.510 C 255.208 35.570,256.305 36.096,269.311 41.398 C 275.651 43.982,275.019 44.455,279.348 33.893 C 282.963 25.074,283.152 24.164,281.511 23.481 C 261.038 14.965,263.101 15.656,261.882 16.900 M296.800 30.266 C 296.470 30.362,295.369 31.736,294.353 33.320 C 293.337 34.904,291.296 38.073,289.816 40.361 C 285.685 46.754,285.651 47.161,289.080 49.224 C 289.916 49.727,293.436 51.998,296.903 54.269 C 304.611 59.321,305.035 59.374,307.394 55.600 C 308.013 54.610,310.113 51.396,312.060 48.458 C 316.714 41.435,316.751 41.815,311.045 38.112 C 308.820 36.668,305.135 34.252,302.855 32.743 C 298.927 30.143,298.222 29.855,296.800 30.266 M321.608 57.851 C 313.170 65.598,313.255 64.293,320.660 72.503 C 328.553 81.255,328.186 80.900,329.342 80.900 C 330.762 80.900,344.000 68.747,344.000 67.443 C 344.000 66.058,330.670 51.600,329.393 51.600 C 328.689 51.600,326.514 53.346,321.608 57.851 M347.451 83.170 C 339.922 87.900,339.218 88.450,339.206 89.617 C 339.188 91.434,350.036 107.600,351.274 107.600 C 352.318 107.600,366.709 98.511,367.445 97.387 C 368.187 96.256,368.509 96.917,362.484 87.200 C 355.891 76.567,357.342 76.956,347.451 83.170 M253.727 80.646 C 256.854 82.137,258.210 86.871,256.365 89.856 C 252.549 96.031,243.098 92.611,244.172 85.445 C 244.827 81.078,249.603 78.679,253.727 80.646 M366.466 113.567 C 357.435 117.167,357.200 117.295,357.200 118.602 C 357.200 119.739,363.848 136.713,364.621 137.550 C 365.821 138.850,383.367 132.467,383.847 130.556 C 384.164 129.290,377.024 111.348,375.980 110.789 C 374.900 110.212,374.829 110.232,366.466 113.567 M324.543 125.750 C 328.032 127.208,329.620 131.417,327.924 134.713 C 324.703 140.972,315.593 139.027,315.539 132.070 C 315.501 127.177,320.149 123.915,324.543 125.750 M384.400 146.021 C 381.909 146.623,372.333 148.400,371.578 148.400 C 371.175 148.400,370.360 148.816,369.769 149.325 L 368.693 150.251 370.400 159.625 C 372.775 172.672,371.913 171.686,379.665 170.229 C 395.175 167.314,393.710 168.918,391.596 157.164 C 389.385 144.874,389.353 144.824,384.400 146.021 M264.000 220.594 L 264.000 262.789 237.300 262.894 L 210.600 263.000 210.704 220.700 L 210.807 178.400 237.404 178.400 L 264.000 178.400 264.000 220.594 M372.662 184.331 C 371.690 185.406,371.659 204.802,372.629 205.771 C 373.630 206.773,391.878 206.708,392.643 205.700 C 393.496 204.577,393.431 185.088,392.571 184.229 C 391.546 183.204,373.599 183.296,372.662 184.331 M368.574 239.994 C 373.135 242.221,373.599 248.275,369.446 251.375 C 367.581 252.768,363.236 252.561,361.577 251.000 C 355.839 245.601,361.576 236.577,368.574 239.994 M353.629 287.054 C 353.173 287.634,352.800 288.247,352.800 288.417 C 352.800 288.587,352.020 290.408,351.067 292.463 C 345.039 305.457,344.864 306.343,348.069 307.599 C 348.801 307.886,350.660 308.704,352.200 309.417 C 365.730 315.682,363.916 316.403,369.948 302.359 C 373.857 293.258,374.072 294.019,366.668 290.773 C 363.551 289.406,359.883 287.773,358.517 287.144 C 355.448 285.730,354.681 285.716,353.629 287.054 M339.204 317.996 C 337.787 319.413,329.916 335.610,330.164 336.599 C 330.419 337.617,345.434 345.700,347.070 345.700 C 348.613 345.700,349.118 344.957,353.439 336.322 C 359.032 325.145,359.488 326.623,348.731 321.061 C 340.664 316.891,340.396 316.804,339.204 317.996 M272.281 346.651 C 277.461 350.518,274.994 358.728,268.635 358.786 C 261.827 358.847,259.549 350.074,265.400 346.325 C 266.983 345.311,270.723 345.488,272.281 346.651 M322.682 350.169 C 321.270 351.720,320.000 353.495,320.000 353.914 C 320.000 354.128,319.706 354.546,319.346 354.845 C 318.986 355.144,318.266 356.021,317.747 356.794 C 317.228 357.567,316.397 358.765,315.901 359.457 C 309.955 367.746,309.749 366.736,318.693 373.123 C 328.607 380.204,327.293 380.213,332.473 373.030 C 341.440 360.596,340.578 361.965,340.254 360.671 C 340.101 360.064,338.202 358.444,334.742 355.972 C 324.090 348.362,324.254 348.441,322.682 350.169 M302.825 378.775 C 301.952 378.998,299.628 381.640,298.932 383.200 C 298.785 383.530,298.200 384.370,297.633 385.067 C 294.889 388.434,290.400 395.228,290.400 396.014 C 290.400 397.101,291.463 398.080,296.200 401.353 C 298.620 403.025,300.780 404.532,301.000 404.702 C 306.872 409.223,306.464 409.312,311.421 402.435 C 321.435 388.542,321.151 390.492,313.899 385.431 C 311.205 383.550,308.820 381.874,308.600 381.706 C 304.854 378.847,304.079 378.454,302.825 378.775 M282.523 410.382 C 281.106 412.036,273.268 427.973,273.477 428.773 C 273.899 430.386,289.585 438.503,291.200 437.944 C 292.808 437.387,301.552 420.091,300.923 418.711 C 300.589 417.977,298.406 416.674,292.461 413.661 C 283.861 409.301,283.539 409.195,282.523 410.382 M121.464 454.839 C 117.369 456.003,113.986 458.068,111.869 460.697 C 111.467 461.196,110.927 461.828,110.669 462.102 C 106.954 466.041,105.691 476.383,108.194 482.378 C 110.274 487.361,114.570 491.479,120.006 493.703 L 122.200 494.600 196.400 494.706 C 276.055 494.821,272.734 494.905,277.448 492.646 C 294.540 484.453,290.874 457.886,272.174 454.429 C 267.304 453.529,124.708 453.917,121.464 454.839 M128.800 499.374 C 111.225 504.279,108.869 529.300,125.223 537.357 C 129.977 539.699,127.836 539.636,198.200 539.513 L 263.000 539.400 265.269 538.532 C 283.389 531.602,283.367 505.920,265.236 499.785 L 262.323 498.800 196.462 498.836 C 144.915 498.864,130.209 498.981,128.800 499.374 " stroke="none" fill="#94c49c" fill-rule="evenodd"></path><path id="path1" d="M331.782 175.600 C 331.782 184.070,331.835 187.535,331.899 183.300 C 331.964 179.065,331.964 172.135,331.899 167.900 C 331.835 163.665,331.782 167.130,331.782 175.600 " stroke="none" fill="#9cc49c" fill-rule="evenodd"></path><path id="path2" d="M240.986 135.200 C 240.986 146.530,241.037 151.165,241.100 145.500 C 241.162 139.835,241.162 130.565,241.100 124.900 C 241.037 119.235,240.986 123.870,240.986 135.200 " stroke="none" fill="#94bc94" fill-rule="evenodd"></path><path id="path3" d="" stroke="none" fill="#94c4a0" fill-rule="evenodd"></path><path id="path4" d="" stroke="none" fill="#94c4a0" fill-rule="evenodd"></path></g></svg>